<?xml version="1.0" encoding="utf-8"?>
<!-- Generator: Adobe Illustrator 21.0.2, SVG Export Plug-In . SVG Version: 6.00 Build 0)  -->
<svg version="1.1" id="Layer_1" xmlns="http://www.w3.org/2000/svg" xmlns:xlink="http://www.w3.org/1999/xlink" x="0px" y="0px"
	 viewBox="0 0 1934 1133" style="enable-background:new 0 0 1934 1133;" xml:space="preserve">
<style type="text/css">
	.st0{fill:url(#SVGID_1_);}
	.st1{fill:url(#SVGID_2_);}
	.st2{fill:url(#SVGID_3_);}
	.st3{fill:url(#SVGID_4_);}
	.st4{fill:url(#SVGID_5_);}
	.st5{fill:url(#SVGID_6_);}
	.st6{fill:url(#SVGID_7_);}
	.st7{fill:url(#SVGID_8_);}
	.st8{fill:url(#SVGID_9_);}
	.st9{fill:url(#SVGID_10_);}
	.st10{fill:url(#SVGID_11_);}
	.st11{fill:url(#SVGID_12_);}
	.st12{fill:url(#SVGID_13_);}
	.st13{fill:url(#SVGID_14_);}
	.st14{fill:url(#SVGID_15_);}
	.st15{fill:url(#SVGID_16_);}
	.st16{fill:url(#SVGID_17_);}
	.st17{fill:url(#SVGID_18_);}
	.st18{fill:url(#SVGID_19_);}
	.st19{fill:url(#SVGID_20_);}
	.st20{fill:url(#SVGID_21_);}
	.st21{fill:url(#SVGID_22_);}
	.st22{fill:url(#SVGID_23_);}
	.st23{fill:url(#SVGID_24_);}
	.st24{fill:url(#SVGID_25_);}
	.st25{fill:url(#SVGID_26_);}
	.st26{fill:url(#SVGID_27_);}
	.st27{fill:url(#SVGID_28_);}
	.st28{fill:url(#SVGID_29_);}
	.st29{fill:url(#SVGID_30_);}
	.st30{fill:url(#SVGID_31_);}
	.st31{fill:url(#SVGID_32_);}
	.st32{fill:url(#SVGID_33_);}
	.st33{fill:url(#SVGID_34_);}
	.st34{fill:url(#SVGID_35_);}
	.st35{fill:url(#SVGID_36_);}
	.st36{fill:url(#SVGID_37_);}
	.st37{fill:url(#SVGID_38_);}
	.st38{fill:url(#SVGID_39_);}
	.st39{fill:url(#SVGID_40_);}
	.st40{fill:url(#SVGID_41_);}
	.st41{fill:url(#SVGID_42_);}
	.st42{fill:url(#SVGID_43_);}
	.st43{fill:url(#SVGID_44_);}
	.st44{fill:url(#SVGID_45_);}
	.st45{fill:url(#SVGID_46_);}
	.st46{fill:url(#SVGID_47_);}
	.st47{fill:url(#SVGID_48_);}
	.st48{fill:url(#SVGID_49_);}
	.st49{fill:url(#SVGID_50_);}
	.st50{fill:url(#SVGID_51_);}
</style>
<title>Artboard 2</title>
<linearGradient id="SVGID_1_" gradientUnits="userSpaceOnUse" x1="-3.001333e-11" y1="483.1187" x2="1934" y2="483.1187">
	<stop  offset="0" style="stop-color:#00E2C1"/>
	<stop  offset="1" style="stop-color:#0AEF71"/>
</linearGradient>
<polygon class="st0" points="1934,964.7 0,346.1 0,1.5 1934,512.2 "/>
<linearGradient id="SVGID_2_" gradientUnits="userSpaceOnUse" x1="-3.001333e-11" y1="1155.5581" x2="2060.4873" y2="1155.5581">
	<stop  offset="0" style="stop-color:#00E2C1"/>
	<stop  offset="1" style="stop-color:#0AEF71"/>
</linearGradient>
<polygon class="st1" points="2060.5,1177.5 0,607.3 0,1026.7 2060.5,1703.8 "/>
<linearGradient id="SVGID_3_" gradientUnits="userSpaceOnUse" x1="2428.115" y1="613.2424" x2="4362.1152" y2="613.2424">
	<stop  offset="0" style="stop-color:#9CA28D"/>
	<stop  offset="1" style="stop-color:#AEB88D"/>
</linearGradient>
<polygon class="st2" points="4362.1,1094.9 2428.1,476.3 2428.1,131.6 4362.1,642.3 "/>
<linearGradient id="SVGID_4_" gradientUnits="userSpaceOnUse" x1="2428.115" y1="1285.6818" x2="4488.6025" y2="1285.6818">
	<stop  offset="0" style="stop-color:#9CA28D"/>
	<stop  offset="1" style="stop-color:#AEB88D"/>
</linearGradient>
<polygon class="st3" points="4488.6,1307.6 2428.1,737.4 2428.1,1156.9 4488.6,1833.9 "/>
<linearGradient id="SVGID_5_" gradientUnits="userSpaceOnUse" x1="4888.1787" y1="613.2424" x2="6822.1787" y2="613.2424">
	<stop  offset="0" style="stop-color:#EA4900"/>
	<stop  offset="1" style="stop-color:#EA6F5B"/>
</linearGradient>
<polygon class="st4" points="6822.2,1094.9 4888.2,476.3 4888.2,131.6 6822.2,642.3 "/>
<linearGradient id="SVGID_6_" gradientUnits="userSpaceOnUse" x1="4888.1787" y1="1285.6818" x2="6948.6665" y2="1285.6818">
	<stop  offset="0" style="stop-color:#EA4900"/>
	<stop  offset="1" style="stop-color:#EA6F5B"/>
</linearGradient>
<polygon class="st5" points="6948.7,1307.6 4888.2,737.4 4888.2,1156.9 6948.7,1833.9 "/>
<linearGradient id="SVGID_7_" gradientUnits="userSpaceOnUse" x1="7476.0386" y1="613.2424" x2="9410.0381" y2="613.2424">
	<stop  offset="0" style="stop-color:#71777F"/>
	<stop  offset="1" style="stop-color:#6D6F8E"/>
</linearGradient>
<polygon class="st6" points="9410,1094.9 7476,476.3 7476,131.6 9410,642.3 "/>
<linearGradient id="SVGID_8_" gradientUnits="userSpaceOnUse" x1="7476.0386" y1="1285.6818" x2="9536.5254" y2="1285.6818">
	<stop  offset="0" style="stop-color:#71777F"/>
	<stop  offset="1" style="stop-color:#6D6F8E"/>
</linearGradient>
<polygon class="st7" points="9536.5,1307.6 7476,737.4 7476,1156.9 9536.5,1833.9 "/>
<linearGradient id="SVGID_9_" gradientUnits="userSpaceOnUse" x1="-4356.5146" y1="2723.2478" x2="-2422.5149" y2="2723.2478">
	<stop  offset="0" style="stop-color:#F9FA57"/>
	<stop  offset="1" style="stop-color:#F9FA00"/>
</linearGradient>
<polygon class="st8" points="-2422.5,3235.9 -4356.5,2577.5 -4356.5,2210.6 -2422.5,2754.2 "/>
<linearGradient id="SVGID_10_" gradientUnits="userSpaceOnUse" x1="-4356.5146" y1="3364.6873" x2="-2296.0273" y2="3364.6873">
	<stop  offset="0" style="stop-color:#F9FA57"/>
	<stop  offset="1" style="stop-color:#F9FA00"/>
</linearGradient>
<polygon class="st9" points="-2296,3386.6 -4356.5,2816.4 -4356.5,3235.9 -2296,3912.9 "/>
<linearGradient id="SVGID_11_" gradientUnits="userSpaceOnUse" x1="-2159.636" y1="2692.2478" x2="-225.6361" y2="2692.2478">
	<stop  offset="0" style="stop-color:#2C2A2D"/>
	<stop  offset="1" style="stop-color:#36392E"/>
</linearGradient>
<polygon class="st10" points="-225.6,3173.9 -2159.6,2555.3 -2159.6,2210.6 -225.6,2721.3 "/>
<linearGradient id="SVGID_12_" gradientUnits="userSpaceOnUse" x1="-2159.636" y1="3364.6873" x2="-99.1487" y2="3364.6873">
	<stop  offset="0" style="stop-color:#2C2A2D"/>
	<stop  offset="1" style="stop-color:#36392E"/>
</linearGradient>
<polygon class="st11" points="-99.1,3386.6 -2159.6,2816.4 -2159.6,3235.9 -99.1,3912.9 "/>
<linearGradient id="SVGID_13_" gradientUnits="userSpaceOnUse" x1="2524.5891" y1="2692.2478" x2="4458.5889" y2="2692.2478">
	<stop  offset="0" style="stop-color:#4F00AA"/>
	<stop  offset="1" style="stop-color:#2A2CFF"/>
</linearGradient>
<polygon class="st12" points="4458.6,3173.9 2524.6,2555.3 2524.6,2210.6 4458.6,2721.3 "/>
<linearGradient id="SVGID_14_" gradientUnits="userSpaceOnUse" x1="2524.5891" y1="3318.1289" x2="4458.5889" y2="3318.1289">
	<stop  offset="0" style="stop-color:#4F00AA"/>
	<stop  offset="1" style="stop-color:#2A2CFF"/>
</linearGradient>
<polygon class="st13" points="4458.6,3799.8 2524.6,3181.2 2524.6,2836.5 4458.6,3347.2 "/>
<linearGradient id="SVGID_15_" gradientUnits="userSpaceOnUse" x1="2524.5891" y1="3364.6873" x2="4585.0767" y2="3364.6873">
	<stop  offset="0" style="stop-color:#4C00E9"/>
	<stop  offset="1" style="stop-color:#2100FF"/>
</linearGradient>
<polygon class="st14" points="4585.1,3386.6 2524.6,2816.4 2524.6,3235.9 4585.1,3912.9 "/>
<linearGradient id="SVGID_16_" gradientUnits="userSpaceOnUse" x1="4888.1787" y1="2692.2478" x2="6822.1787" y2="2692.2478">
	<stop  offset="0" style="stop-color:#FFFCE9"/>
	<stop  offset="1" style="stop-color:#FFEAC9"/>
</linearGradient>
<polygon class="st15" points="6822.2,3173.9 4888.2,2555.3 4888.2,2210.6 6822.2,2721.3 "/>
<linearGradient id="SVGID_17_" gradientUnits="userSpaceOnUse" x1="4888.1787" y1="3318.1289" x2="6822.1787" y2="3318.1289">
	<stop  offset="0" style="stop-color:#4F00AA"/>
	<stop  offset="1" style="stop-color:#2A2CFF"/>
</linearGradient>
<polygon class="st16" points="6822.2,3799.8 4888.2,3181.2 4888.2,2836.5 6822.2,3347.2 "/>
<linearGradient id="SVGID_18_" gradientUnits="userSpaceOnUse" x1="4888.1787" y1="3364.6873" x2="6948.6665" y2="3364.6873">
	<stop  offset="0" style="stop-color:#FFFCE9"/>
	<stop  offset="1" style="stop-color:#FFEAC9"/>
</linearGradient>
<polygon class="st17" points="6948.7,3386.6 4888.2,2816.4 4888.2,3235.9 6948.7,3912.9 "/>
<linearGradient id="SVGID_19_" gradientUnits="userSpaceOnUse" x1="7156.5493" y1="2692.2478" x2="9090.5498" y2="2692.2478">
	<stop  offset="0" style="stop-color:#154A25"/>
	<stop  offset="1" style="stop-color:#002C00"/>
</linearGradient>
<polygon class="st18" points="9090.5,3173.9 7156.5,2555.3 7156.5,2210.6 9090.5,2721.3 "/>
<linearGradient id="SVGID_20_" gradientUnits="userSpaceOnUse" x1="7156.5493" y1="3318.1289" x2="9090.5498" y2="3318.1289">
	<stop  offset="0" style="stop-color:#4F00AA"/>
	<stop  offset="1" style="stop-color:#2A2CFF"/>
</linearGradient>
<polygon class="st19" points="9090.5,3799.8 7156.5,3181.2 7156.5,2836.5 9090.5,3347.2 "/>
<linearGradient id="SVGID_21_" gradientUnits="userSpaceOnUse" x1="7156.5493" y1="3364.6873" x2="9217.0371" y2="3364.6873">
	<stop  offset="0" style="stop-color:#154A25"/>
	<stop  offset="1" style="stop-color:#002C00"/>
</linearGradient>
<polygon class="st20" points="9217,3386.6 7156.5,2816.4 7156.5,3235.9 9217,3912.9 "/>
<linearGradient id="SVGID_22_" gradientUnits="userSpaceOnUse" x1="-4356.5146" y1="4798.5459" x2="-2422.5149" y2="4798.5459">
	<stop  offset="0" style="stop-color:#E7D4FF"/>
	<stop  offset="1" style="stop-color:#E7B5FF"/>
</linearGradient>
<polygon class="st21" points="-2422.5,5280.2 -4356.5,4661.6 -4356.5,4316.9 -2422.5,4827.6 "/>
<linearGradient id="SVGID_23_" gradientUnits="userSpaceOnUse" x1="-4356.5146" y1="5424.4272" x2="-2422.5149" y2="5424.4272">
	<stop  offset="0" style="stop-color:#4F00AA"/>
	<stop  offset="1" style="stop-color:#2A2CFF"/>
</linearGradient>
<polygon class="st22" points="-2422.5,5906.1 -4356.5,5287.5 -4356.5,4942.8 -2422.5,5453.5 "/>
<linearGradient id="SVGID_24_" gradientUnits="userSpaceOnUse" x1="-4356.5146" y1="5470.9854" x2="-2296.0273" y2="5470.9854">
	<stop  offset="0" style="stop-color:#E7D4FF"/>
	<stop  offset="1" style="stop-color:#E7B5FF"/>
</linearGradient>
<polygon class="st23" points="-2296,5492.9 -4356.5,4922.7 -4356.5,5342.2 -2296,6019.2 "/>
<linearGradient id="SVGID_25_" gradientUnits="userSpaceOnUse" x1="-2159.636" y1="4926.3413" x2="-225.6361" y2="4926.3413">
	<stop  offset="0" style="stop-color:#DB413F"/>
	<stop  offset="1" style="stop-color:#FF683F"/>
</linearGradient>
<polygon class="st24" points="-225.6,5408 -2159.6,4789.4 -2159.6,4444.7 -225.6,4955.4 "/>
<linearGradient id="SVGID_26_" gradientUnits="userSpaceOnUse" x1="-2159.636" y1="5552.2227" x2="-225.6361" y2="5552.2227">
	<stop  offset="0" style="stop-color:#4F00AA"/>
	<stop  offset="1" style="stop-color:#2A2CFF"/>
</linearGradient>
<polygon class="st25" points="-225.6,6033.9 -2159.6,5415.3 -2159.6,5070.6 -225.6,5581.3 "/>
<linearGradient id="SVGID_27_" gradientUnits="userSpaceOnUse" x1="-2159.636" y1="5598.7808" x2="-99.1487" y2="5598.7808">
	<stop  offset="0" style="stop-color:#DB413F"/>
	<stop  offset="1" style="stop-color:#FF683F"/>
</linearGradient>
<polygon class="st26" points="-99.1,5620.7 -2159.6,5050.5 -2159.6,5470 -99.1,6147 "/>
<linearGradient id="SVGID_28_" gradientUnits="userSpaceOnUse" x1="129.6011" y1="4926.3413" x2="2063.6011" y2="4926.3413">
	<stop  offset="0" style="stop-color:#ADB7C1"/>
	<stop  offset="1" style="stop-color:#6A6D6B"/>
</linearGradient>
<polygon class="st27" points="2063.6,5408 129.6,4789.4 129.6,4444.7 2063.6,4955.4 "/>
<linearGradient id="SVGID_29_" gradientUnits="userSpaceOnUse" x1="129.6011" y1="5552.2227" x2="2063.6011" y2="5552.2227">
	<stop  offset="0" style="stop-color:#4F00AA"/>
	<stop  offset="1" style="stop-color:#2A2CFF"/>
</linearGradient>
<polygon class="st28" points="2063.6,6033.9 129.6,5415.3 129.6,5070.6 2063.6,5581.3 "/>
<linearGradient id="SVGID_30_" gradientUnits="userSpaceOnUse" x1="129.6011" y1="5598.7808" x2="2190.0886" y2="5598.7808">
	<stop  offset="0" style="stop-color:#ADB7C1"/>
	<stop  offset="1" style="stop-color:#6A6D6B"/>
</linearGradient>
<polygon class="st29" points="2190.1,5620.7 129.6,5050.5 129.6,5470 2190.1,6147 "/>
<linearGradient id="SVGID_31_" gradientUnits="userSpaceOnUse" x1="2524.5891" y1="4926.3413" x2="4458.5889" y2="4926.3413">
	<stop  offset="0" style="stop-color:#7A1941"/>
	<stop  offset="1" style="stop-color:#651D1F"/>
</linearGradient>
<polygon class="st30" points="4458.6,5408 2524.6,4789.4 2524.6,4444.7 4458.6,4955.4 "/>
<linearGradient id="SVGID_32_" gradientUnits="userSpaceOnUse" x1="2524.5891" y1="5552.2227" x2="4458.5889" y2="5552.2227">
	<stop  offset="0" style="stop-color:#4F00AA"/>
	<stop  offset="1" style="stop-color:#2A2CFF"/>
</linearGradient>
<polygon class="st31" points="4458.6,6033.9 2524.6,5415.3 2524.6,5070.6 4458.6,5581.3 "/>
<linearGradient id="SVGID_33_" gradientUnits="userSpaceOnUse" x1="2524.5891" y1="5598.7808" x2="4585.0767" y2="5598.7808">
	<stop  offset="0" style="stop-color:#7A1941"/>
	<stop  offset="1" style="stop-color:#651D1F"/>
</linearGradient>
<polygon class="st32" points="4585.1,5620.7 2524.6,5050.5 2524.6,5470 4585.1,6147 "/>
<linearGradient id="SVGID_34_" gradientUnits="userSpaceOnUse" x1="4888.1787" y1="4926.3413" x2="6822.1787" y2="4926.3413">
	<stop  offset="0" style="stop-color:#0D3579"/>
	<stop  offset="1" style="stop-color:#0D1A9D"/>
</linearGradient>
<polygon class="st33" points="6822.2,5408 4888.2,4789.4 4888.2,4444.7 6822.2,4955.4 "/>
<linearGradient id="SVGID_35_" gradientUnits="userSpaceOnUse" x1="4888.1787" y1="5552.2227" x2="6822.1787" y2="5552.2227">
	<stop  offset="0" style="stop-color:#4F00AA"/>
	<stop  offset="1" style="stop-color:#2A2CFF"/>
</linearGradient>
<polygon class="st34" points="6822.2,6033.9 4888.2,5415.3 4888.2,5070.6 6822.2,5581.3 "/>
<linearGradient id="SVGID_36_" gradientUnits="userSpaceOnUse" x1="4888.1787" y1="5598.7808" x2="6948.6665" y2="5598.7808">
	<stop  offset="0" style="stop-color:#0D3579"/>
	<stop  offset="1" style="stop-color:#0D1A9D"/>
</linearGradient>
<polygon class="st35" points="6948.7,5620.7 4888.2,5050.5 4888.2,5470 6948.7,6147 "/>
<linearGradient id="SVGID_37_" gradientUnits="userSpaceOnUse" x1="7285.9629" y1="5144.1372" x2="9219.9629" y2="5144.1372">
	<stop  offset="0" style="stop-color:#FFADA9"/>
	<stop  offset="1" style="stop-color:#FEADCD"/>
</linearGradient>
<polygon class="st36" points="9220,5625.8 7286,5007.2 7286,4662.5 9220,5173.2 "/>
<linearGradient id="SVGID_38_" gradientUnits="userSpaceOnUse" x1="7285.9629" y1="5770.0186" x2="9219.9629" y2="5770.0186">
	<stop  offset="0" style="stop-color:#4F00AA"/>
	<stop  offset="1" style="stop-color:#2A2CFF"/>
</linearGradient>
<polygon class="st37" points="9220,6251.6 7286,5633 7286,5288.4 9220,5799.1 "/>
<linearGradient id="SVGID_39_" gradientUnits="userSpaceOnUse" x1="7285.9629" y1="5816.5767" x2="9346.4502" y2="5816.5767">
	<stop  offset="0" style="stop-color:#FFADA9"/>
	<stop  offset="1" style="stop-color:#FEADCD"/>
</linearGradient>
<polygon class="st38" points="9346.5,5838.5 7286,5268.3 7286,5687.8 9346.5,6364.8 "/>
<linearGradient id="SVGID_40_" gradientUnits="userSpaceOnUse" x1="9410.0381" y1="5144.1372" x2="11344.0381" y2="5144.1372">
	<stop  offset="0" style="stop-color:#426C99"/>
	<stop  offset="1" style="stop-color:#426CB6"/>
</linearGradient>
<polygon class="st39" points="11344,5625.8 9410,5007.2 9410,4662.5 11344,5173.2 "/>
<linearGradient id="SVGID_41_" gradientUnits="userSpaceOnUse" x1="9410.0381" y1="5770.0186" x2="11344.0381" y2="5770.0186">
	<stop  offset="0" style="stop-color:#4F00AA"/>
	<stop  offset="1" style="stop-color:#2A2CFF"/>
</linearGradient>
<polygon class="st40" points="11344,6251.6 9410,5633 9410,5288.4 11344,5799.1 "/>
<linearGradient id="SVGID_42_" gradientUnits="userSpaceOnUse" x1="9410.0381" y1="5816.5767" x2="11470.5254" y2="5816.5767">
	<stop  offset="0" style="stop-color:#426C99"/>
	<stop  offset="1" style="stop-color:#426CB6"/>
</linearGradient>
<polygon class="st41" points="11470.5,5838.5 9410,5268.3 9410,5687.8 11470.5,6364.8 "/>
<linearGradient id="SVGID_43_" gradientUnits="userSpaceOnUse" x1="129.6011" y1="2692.2478" x2="2063.6011" y2="2692.2478">
	<stop  offset="0" style="stop-color:#FFF3AA"/>
	<stop  offset="1" style="stop-color:#FFBF3F"/>
</linearGradient>
<polygon class="st42" points="2063.6,3173.9 129.6,2555.3 129.6,2210.6 2063.6,2721.3 "/>
<linearGradient id="SVGID_44_" gradientUnits="userSpaceOnUse" x1="129.6011" y1="3318.1289" x2="2063.6011" y2="3318.1289">
	<stop  offset="0" style="stop-color:#4F00AA"/>
	<stop  offset="1" style="stop-color:#2A2CFF"/>
</linearGradient>
<polygon class="st43" points="2063.6,3799.8 129.6,3181.2 129.6,2836.5 2063.6,3347.2 "/>
<linearGradient id="SVGID_45_" gradientUnits="userSpaceOnUse" x1="129.6011" y1="3364.6873" x2="2190.0886" y2="3364.6873">
	<stop  offset="0" style="stop-color:#FFF3AA"/>
	<stop  offset="1" style="stop-color:#FFB82A"/>
</linearGradient>
<polygon class="st44" points="2190.1,3386.6 129.6,2816.4 129.6,3235.9 2190.1,3912.9 "/>
<linearGradient id="SVGID_46_" gradientUnits="userSpaceOnUse" x1="-4356.5146" y1="483.1187" x2="-2422.5149" y2="483.1187">
	<stop  offset="0" style="stop-color:#FF0094"/>
	<stop  offset="1" style="stop-color:#E900CA"/>
</linearGradient>
<polygon class="st45" points="-2422.5,964.7 -4356.5,346.1 -4356.5,1.5 -2422.5,512.2 "/>
<linearGradient id="SVGID_47_" gradientUnits="userSpaceOnUse" x1="-4356.5146" y1="1109" x2="-2422.5149" y2="1109">
	<stop  offset="0" style="stop-color:#4F00AA"/>
	<stop  offset="1" style="stop-color:#2A2CFF"/>
</linearGradient>
<polygon class="st46" points="-2422.5,1590.6 -4356.5,972 -4356.5,627.4 -2422.5,1138.1 "/>
<linearGradient id="SVGID_48_" gradientUnits="userSpaceOnUse" x1="-4356.5146" y1="1155.5581" x2="-2296.0273" y2="1155.5581">
	<stop  offset="0" style="stop-color:#FF0094"/>
	<stop  offset="1" style="stop-color:#E900CA"/>
</linearGradient>
<polygon class="st47" points="-2296,1177.5 -4356.5,607.3 -4356.5,1026.7 -2296,1703.8 "/>
<linearGradient id="SVGID_49_" gradientUnits="userSpaceOnUse" x1="-2159.636" y1="483.1187" x2="-225.6361" y2="483.1187">
	<stop  offset="0" style="stop-color:#FF1500"/>
	<stop  offset="1" style="stop-color:#9F0A00"/>
</linearGradient>
<polygon class="st48" points="-225.6,964.7 -2159.6,346.1 -2159.6,1.5 -225.6,512.2 "/>
<linearGradient id="SVGID_50_" gradientUnits="userSpaceOnUse" x1="-2159.636" y1="1109" x2="-225.6361" y2="1109">
	<stop  offset="0" style="stop-color:#4F00AA"/>
	<stop  offset="1" style="stop-color:#2A2CFF"/>
</linearGradient>
<polygon class="st49" points="-225.6,1590.6 -2159.6,972 -2159.6,627.4 -225.6,1138.1 "/>
<linearGradient id="SVGID_51_" gradientUnits="userSpaceOnUse" x1="-2159.636" y1="1155.5581" x2="-99.1487" y2="1155.5581">
	<stop  offset="0" style="stop-color:#FF1500"/>
	<stop  offset="1" style="stop-color:#9F0A00"/>
</linearGradient>
<polygon class="st50" points="-99.1,1177.5 -2159.6,607.3 -2159.6,1026.7 -99.1,1703.8 "/>
</svg>
