<?xml version="1.0" encoding="utf-8"?>
<!-- Generator: Adobe Illustrator 21.0.2, SVG Export Plug-In . SVG Version: 6.00 Build 0)  -->
<svg version="1.1" id="Layer_1" xmlns="http://www.w3.org/2000/svg" xmlns:xlink="http://www.w3.org/1999/xlink" x="0px" y="0px"
	 viewBox="0 0 1934 1133" style="enable-background:new 0 0 1934 1133;" xml:space="preserve">
<style type="text/css">
	.st0{fill:url(#SVGID_1_);}
	.st1{fill:url(#SVGID_2_);}
	.st2{fill:url(#SVGID_3_);}
	.st3{fill:url(#SVGID_4_);}
	.st4{fill:url(#SVGID_5_);}
	.st5{fill:url(#SVGID_6_);}
	.st6{fill:url(#SVGID_7_);}
	.st7{fill:url(#SVGID_8_);}
	.st8{fill:url(#SVGID_9_);}
	.st9{fill:url(#SVGID_10_);}
	.st10{fill:url(#SVGID_11_);}
	.st11{fill:url(#SVGID_12_);}
	.st12{fill:url(#SVGID_13_);}
	.st13{fill:url(#SVGID_14_);}
	.st14{fill:url(#SVGID_15_);}
	.st15{fill:url(#SVGID_16_);}
	.st16{fill:url(#SVGID_17_);}
	.st17{fill:url(#SVGID_18_);}
	.st18{fill:url(#SVGID_19_);}
	.st19{fill:url(#SVGID_20_);}
	.st20{fill:url(#SVGID_21_);}
	.st21{fill:url(#SVGID_22_);}
	.st22{fill:url(#SVGID_23_);}
	.st23{fill:url(#SVGID_24_);}
	.st24{fill:url(#SVGID_25_);}
	.st25{fill:url(#SVGID_26_);}
	.st26{fill:url(#SVGID_27_);}
	.st27{fill:url(#SVGID_28_);}
	.st28{fill:url(#SVGID_29_);}
	.st29{fill:url(#SVGID_30_);}
	.st30{fill:url(#SVGID_31_);}
	.st31{fill:url(#SVGID_32_);}
	.st32{fill:url(#SVGID_33_);}
	.st33{fill:url(#SVGID_34_);}
	.st34{fill:url(#SVGID_35_);}
	.st35{fill:url(#SVGID_36_);}
	.st36{fill:url(#SVGID_37_);}
	.st37{fill:url(#SVGID_38_);}
	.st38{fill:url(#SVGID_39_);}
	.st39{fill:url(#SVGID_40_);}
	.st40{fill:url(#SVGID_41_);}
	.st41{fill:url(#SVGID_42_);}
	.st42{fill:url(#SVGID_43_);}
	.st43{fill:url(#SVGID_44_);}
	.st44{fill:url(#SVGID_45_);}
	.st45{fill:url(#SVGID_46_);}
	.st46{fill:url(#SVGID_47_);}
	.st47{fill:url(#SVGID_48_);}
	.st48{fill:url(#SVGID_49_);}
	.st49{fill:url(#SVGID_50_);}
	.st50{fill:url(#SVGID_51_);}
</style>
<title>Artboard 2</title>
<linearGradient id="SVGID_1_" gradientUnits="userSpaceOnUse" x1="-9410" y1="5311.8999" x2="-7476" y2="5311.8999" gradientTransform="matrix(1 0 0 -1 0 1134)">
	<stop  offset="0" style="stop-color:#00E2C1"/>
	<stop  offset="1" style="stop-color:#0AEF71"/>
</linearGradient>
<polygon class="st0" points="-7476,-3696.3 -9410,-4314.9 -9410,-4659.5 -7476,-4148.8 "/>
<linearGradient id="SVGID_2_" gradientUnits="userSpaceOnUse" x1="-9410" y1="4639.4502" x2="-7349.6001" y2="4639.4502" gradientTransform="matrix(1 0 0 -1 0 1134)">
	<stop  offset="0" style="stop-color:#00E2C1"/>
	<stop  offset="1" style="stop-color:#0AEF71"/>
</linearGradient>
<polygon class="st1" points="-7349.6,-3483.6 -9410,-4053.7 -9410,-3634.3 -7349.6,-2957.2 "/>
<linearGradient id="SVGID_3_" gradientUnits="userSpaceOnUse" x1="-6981.8999" y1="5181.75" x2="-5047.8999" y2="5181.75" gradientTransform="matrix(1 0 0 -1 0 1134)">
	<stop  offset="0" style="stop-color:#9CA28D"/>
	<stop  offset="1" style="stop-color:#AEB88D"/>
</linearGradient>
<polygon class="st2" points="-5047.9,-3566.1 -6981.9,-4184.7 -6981.9,-4529.4 -5047.9,-4018.7 "/>
<linearGradient id="SVGID_4_" gradientUnits="userSpaceOnUse" x1="-6981.8999" y1="4509.3501" x2="-4921.3999" y2="4509.3501" gradientTransform="matrix(1 0 0 -1 0 1134)">
	<stop  offset="0" style="stop-color:#9CA28D"/>
	<stop  offset="1" style="stop-color:#AEB88D"/>
</linearGradient>
<polygon class="st3" points="-4921.4,-3353.4 -6981.9,-3923.6 -6981.9,-3504.1 -4921.4,-2827.1 "/>
<linearGradient id="SVGID_5_" gradientUnits="userSpaceOnUse" x1="-4521.8999" y1="5181.75" x2="-2587.8999" y2="5181.75" gradientTransform="matrix(1 0 0 -1 0 1134)">
	<stop  offset="0" style="stop-color:#EA4900"/>
	<stop  offset="1" style="stop-color:#EA6F5B"/>
</linearGradient>
<polygon class="st4" points="-2587.9,-3566.1 -4521.9,-4184.7 -4521.9,-4529.4 -2587.9,-4018.7 "/>
<linearGradient id="SVGID_6_" gradientUnits="userSpaceOnUse" x1="-4521.8999" y1="4509.3501" x2="-2461.3999" y2="4509.3501" gradientTransform="matrix(1 0 0 -1 0 1134)">
	<stop  offset="0" style="stop-color:#EA4900"/>
	<stop  offset="1" style="stop-color:#EA6F5B"/>
</linearGradient>
<polygon class="st5" points="-2461.4,-3353.4 -4521.9,-3923.6 -4521.9,-3504.1 -2461.4,-2827.1 "/>
<linearGradient id="SVGID_7_" gradientUnits="userSpaceOnUse" x1="-1934" y1="5181.75" x2="0" y2="5181.75" gradientTransform="matrix(1 0 0 -1 0 1134)">
	<stop  offset="0" style="stop-color:#71777F"/>
	<stop  offset="1" style="stop-color:#6D6F8E"/>
</linearGradient>
<polygon class="st6" points="0,-3566.1 -1934,-4184.7 -1934,-4529.4 0,-4018.7 "/>
<linearGradient id="SVGID_8_" gradientUnits="userSpaceOnUse" x1="-1934" y1="4509.3501" x2="126.5" y2="4509.3501" gradientTransform="matrix(1 0 0 -1 0 1134)">
	<stop  offset="0" style="stop-color:#71777F"/>
	<stop  offset="1" style="stop-color:#6D6F8E"/>
</linearGradient>
<polygon class="st7" points="126.5,-3353.4 -1934,-3923.6 -1934,-3504.1 126.5,-2827.1 "/>
<linearGradient id="SVGID_9_" gradientUnits="userSpaceOnUse" x1="-13766.5996" y1="3071.75" x2="-11832.5996" y2="3071.75" gradientTransform="matrix(1 0 0 -1 0 1134)">
	<stop  offset="0" style="stop-color:#F9FA57"/>
	<stop  offset="1" style="stop-color:#F9FA00"/>
</linearGradient>
<polygon class="st8" points="-11832.6,-1425.1 -13766.6,-2083.6 -13766.6,-2450.4 -11832.6,-1906.8 "/>
<linearGradient id="SVGID_10_" gradientUnits="userSpaceOnUse" x1="-13766.5996" y1="2430.3501" x2="-11706.0996" y2="2430.3501" gradientTransform="matrix(1 0 0 -1 0 1134)">
	<stop  offset="0" style="stop-color:#F9FA57"/>
	<stop  offset="1" style="stop-color:#F9FA00"/>
</linearGradient>
<polygon class="st9" points="-11706.1,-1274.4 -13766.6,-1844.6 -13766.6,-1425.1 -11706.1,-748.1 "/>
<linearGradient id="SVGID_11_" gradientUnits="userSpaceOnUse" x1="-11569.7002" y1="3102.75" x2="-9635.7002" y2="3102.75" gradientTransform="matrix(1 0 0 -1 0 1134)">
	<stop  offset="0" style="stop-color:#2C2A2D"/>
	<stop  offset="1" style="stop-color:#36392E"/>
</linearGradient>
<polygon class="st10" points="-9635.7,-1487.1 -11569.7,-2105.7 -11569.7,-2450.4 -9635.7,-1939.7 "/>
<linearGradient id="SVGID_12_" gradientUnits="userSpaceOnUse" x1="-11569.7002" y1="2430.3501" x2="-9509.2002" y2="2430.3501" gradientTransform="matrix(1 0 0 -1 0 1134)">
	<stop  offset="0" style="stop-color:#2C2A2D"/>
	<stop  offset="1" style="stop-color:#36392E"/>
</linearGradient>
<polygon class="st11" points="-9509.2,-1274.4 -11569.7,-1844.6 -11569.7,-1425.1 -9509.2,-748.1 "/>
<linearGradient id="SVGID_13_" gradientUnits="userSpaceOnUse" x1="-6885.3999" y1="3102.75" x2="-4951.3999" y2="3102.75" gradientTransform="matrix(1 0 0 -1 0 1134)">
	<stop  offset="0" style="stop-color:#4F00AA"/>
	<stop  offset="1" style="stop-color:#2A2CFF"/>
</linearGradient>
<polygon class="st12" points="-4951.4,-1487.1 -6885.4,-2105.7 -6885.4,-2450.4 -4951.4,-1939.7 "/>
<linearGradient id="SVGID_14_" gradientUnits="userSpaceOnUse" x1="-6885.3999" y1="2476.8999" x2="-4951.3999" y2="2476.8999" gradientTransform="matrix(1 0 0 -1 0 1134)">
	<stop  offset="0" style="stop-color:#4F00AA"/>
	<stop  offset="1" style="stop-color:#2A2CFF"/>
</linearGradient>
<polygon class="st13" points="-4951.4,-861.3 -6885.4,-1479.9 -6885.4,-1824.5 -4951.4,-1313.8 "/>
<linearGradient id="SVGID_15_" gradientUnits="userSpaceOnUse" x1="-6885.3999" y1="2430.3501" x2="-4825" y2="2430.3501" gradientTransform="matrix(1 0 0 -1 0 1134)">
	<stop  offset="0" style="stop-color:#4C00E9"/>
	<stop  offset="1" style="stop-color:#2100FF"/>
</linearGradient>
<polygon class="st14" points="-4825,-1274.4 -6885.4,-1844.6 -6885.4,-1425.1 -4825,-748.1 "/>
<linearGradient id="SVGID_16_" gradientUnits="userSpaceOnUse" x1="-4521.8999" y1="3102.75" x2="-2587.8999" y2="3102.75" gradientTransform="matrix(1 0 0 -1 0 1134)">
	<stop  offset="0" style="stop-color:#FFFCE9"/>
	<stop  offset="1" style="stop-color:#FFEAC9"/>
</linearGradient>
<polygon class="st15" points="-2587.9,-1487.1 -4521.9,-2105.7 -4521.9,-2450.4 -2587.9,-1939.7 "/>
<linearGradient id="SVGID_17_" gradientUnits="userSpaceOnUse" x1="-4521.8999" y1="2476.8999" x2="-2587.8999" y2="2476.8999" gradientTransform="matrix(1 0 0 -1 0 1134)">
	<stop  offset="0" style="stop-color:#4F00AA"/>
	<stop  offset="1" style="stop-color:#2A2CFF"/>
</linearGradient>
<polygon class="st16" points="-2587.9,-861.3 -4521.9,-1479.9 -4521.9,-1824.5 -2587.9,-1313.8 "/>
<linearGradient id="SVGID_18_" gradientUnits="userSpaceOnUse" x1="-4521.8999" y1="2430.3501" x2="-2461.3999" y2="2430.3501" gradientTransform="matrix(1 0 0 -1 0 1134)">
	<stop  offset="0" style="stop-color:#FFFCE9"/>
	<stop  offset="1" style="stop-color:#FFEAC9"/>
</linearGradient>
<polygon class="st17" points="-2461.4,-1274.4 -4521.9,-1844.6 -4521.9,-1425.1 -2461.4,-748.1 "/>
<linearGradient id="SVGID_19_" gradientUnits="userSpaceOnUse" x1="-2253.5" y1="3102.75" x2="-319.5" y2="3102.75" gradientTransform="matrix(1 0 0 -1 0 1134)">
	<stop  offset="0" style="stop-color:#154A25"/>
	<stop  offset="1" style="stop-color:#002C00"/>
</linearGradient>
<polygon class="st18" points="-319.5,-1487.1 -2253.5,-2105.7 -2253.5,-2450.4 -319.5,-1939.7 "/>
<linearGradient id="SVGID_20_" gradientUnits="userSpaceOnUse" x1="-2253.5" y1="2476.8999" x2="-319.5" y2="2476.8999" gradientTransform="matrix(1 0 0 -1 0 1134)">
	<stop  offset="0" style="stop-color:#4F00AA"/>
	<stop  offset="1" style="stop-color:#2A2CFF"/>
</linearGradient>
<polygon class="st19" points="-319.5,-861.3 -2253.5,-1479.9 -2253.5,-1824.5 -319.5,-1313.8 "/>
<linearGradient id="SVGID_21_" gradientUnits="userSpaceOnUse" x1="-2253.5" y1="2430.3501" x2="-193" y2="2430.3501" gradientTransform="matrix(1 0 0 -1 0 1134)">
	<stop  offset="0" style="stop-color:#154A25"/>
	<stop  offset="1" style="stop-color:#002C00"/>
</linearGradient>
<polygon class="st20" points="-193,-1274.4 -2253.5,-1844.6 -2253.5,-1425.1 -193,-748.1 "/>
<linearGradient id="SVGID_22_" gradientUnits="userSpaceOnUse" x1="-13766.5996" y1="996.45" x2="-11832.5996" y2="996.45" gradientTransform="matrix(1 0 0 -1 0 1134)">
	<stop  offset="0" style="stop-color:#E7D4FF"/>
	<stop  offset="1" style="stop-color:#E7B5FF"/>
</linearGradient>
<polygon class="st21" points="-11832.6,619.2 -13766.6,0.6 -13766.6,-344.1 -11832.6,166.6 "/>
<linearGradient id="SVGID_23_" gradientUnits="userSpaceOnUse" x1="-13766.5996" y1="370.6" x2="-11832.5996" y2="370.6" gradientTransform="matrix(1 0 0 -1 0 1134)">
	<stop  offset="0" style="stop-color:#4F00AA"/>
	<stop  offset="1" style="stop-color:#2A2CFF"/>
</linearGradient>
<polygon class="st22" points="-11832.6,1245 -13766.6,626.4 -13766.6,281.8 -11832.6,792.5 "/>
<linearGradient id="SVGID_24_" gradientUnits="userSpaceOnUse" x1="-13766.5996" y1="324.05" x2="-11706.0996" y2="324.05" gradientTransform="matrix(1 0 0 -1 0 1134)">
	<stop  offset="0" style="stop-color:#E7D4FF"/>
	<stop  offset="1" style="stop-color:#E7B5FF"/>
</linearGradient>
<polygon class="st23" points="-11706.1,831.9 -13766.6,261.7 -13766.6,681.2 -11706.1,1358.2 "/>
<linearGradient id="SVGID_25_" gradientUnits="userSpaceOnUse" x1="-11569.7002" y1="868.65" x2="-9635.7002" y2="868.65" gradientTransform="matrix(1 0 0 -1 0 1134)">
	<stop  offset="0" style="stop-color:#DB413F"/>
	<stop  offset="1" style="stop-color:#FF683F"/>
</linearGradient>
<polygon class="st24" points="-9635.7,747 -11569.7,128.4 -11569.7,-216.3 -9635.7,294.4 "/>
<linearGradient id="SVGID_26_" gradientUnits="userSpaceOnUse" x1="-11569.7002" y1="242.8" x2="-9635.7002" y2="242.8" gradientTransform="matrix(1 0 0 -1 0 1134)">
	<stop  offset="0" style="stop-color:#4F00AA"/>
	<stop  offset="1" style="stop-color:#2A2CFF"/>
</linearGradient>
<polygon class="st25" points="-9635.7,1372.8 -11569.7,754.2 -11569.7,409.6 -9635.7,920.3 "/>
<linearGradient id="SVGID_27_" gradientUnits="userSpaceOnUse" x1="-11569.7002" y1="196.25" x2="-9509.2002" y2="196.25" gradientTransform="matrix(1 0 0 -1 0 1134)">
	<stop  offset="0" style="stop-color:#DB413F"/>
	<stop  offset="1" style="stop-color:#FF683F"/>
</linearGradient>
<polygon class="st26" points="-9509.2,959.7 -11569.7,389.5 -11569.7,809 -9509.2,1486 "/>
<linearGradient id="SVGID_28_" gradientUnits="userSpaceOnUse" x1="-9280.4004" y1="868.65" x2="-7346.3999" y2="868.65" gradientTransform="matrix(1 0 0 -1 0 1134)">
	<stop  offset="0" style="stop-color:#ADB7C1"/>
	<stop  offset="1" style="stop-color:#6A6D6B"/>
</linearGradient>
<polygon class="st27" points="-7346.4,747 -9280.4,128.4 -9280.4,-216.3 -7346.4,294.4 "/>
<linearGradient id="SVGID_29_" gradientUnits="userSpaceOnUse" x1="-9280.4004" y1="242.8" x2="-7346.3999" y2="242.8" gradientTransform="matrix(1 0 0 -1 0 1134)">
	<stop  offset="0" style="stop-color:#4F00AA"/>
	<stop  offset="1" style="stop-color:#2A2CFF"/>
</linearGradient>
<polygon class="st28" points="-7346.4,1372.8 -9280.4,754.2 -9280.4,409.6 -7346.4,920.3 "/>
<linearGradient id="SVGID_30_" gradientUnits="userSpaceOnUse" x1="-9280.4004" y1="196.25" x2="-7219.8999" y2="196.25" gradientTransform="matrix(1 0 0 -1 0 1134)">
	<stop  offset="0" style="stop-color:#ADB7C1"/>
	<stop  offset="1" style="stop-color:#6A6D6B"/>
</linearGradient>
<polygon class="st29" points="-7219.9,959.7 -9280.4,389.5 -9280.4,809 -7219.9,1486 "/>
<linearGradient id="SVGID_31_" gradientUnits="userSpaceOnUse" x1="-6885.3999" y1="868.65" x2="-4951.3999" y2="868.65" gradientTransform="matrix(1 0 0 -1 0 1134)">
	<stop  offset="0" style="stop-color:#7A1941"/>
	<stop  offset="1" style="stop-color:#651D1F"/>
</linearGradient>
<polygon class="st30" points="-4951.4,747 -6885.4,128.4 -6885.4,-216.3 -4951.4,294.4 "/>
<linearGradient id="SVGID_32_" gradientUnits="userSpaceOnUse" x1="-6885.3999" y1="242.8" x2="-4951.3999" y2="242.8" gradientTransform="matrix(1 0 0 -1 0 1134)">
	<stop  offset="0" style="stop-color:#4F00AA"/>
	<stop  offset="1" style="stop-color:#2A2CFF"/>
</linearGradient>
<polygon class="st31" points="-4951.4,1372.8 -6885.4,754.2 -6885.4,409.6 -4951.4,920.3 "/>
<linearGradient id="SVGID_33_" gradientUnits="userSpaceOnUse" x1="-6885.3999" y1="196.25" x2="-4825" y2="196.25" gradientTransform="matrix(1 0 0 -1 0 1134)">
	<stop  offset="0" style="stop-color:#7A1941"/>
	<stop  offset="1" style="stop-color:#651D1F"/>
</linearGradient>
<polygon class="st32" points="-4825,959.7 -6885.4,389.5 -6885.4,809 -4825,1486 "/>
<linearGradient id="SVGID_34_" gradientUnits="userSpaceOnUse" x1="-4521.8999" y1="868.65" x2="-2587.8999" y2="868.65" gradientTransform="matrix(1 0 0 -1 0 1134)">
	<stop  offset="0" style="stop-color:#0D3579"/>
	<stop  offset="1" style="stop-color:#0D1A9D"/>
</linearGradient>
<polygon class="st33" points="-2587.9,747 -4521.9,128.4 -4521.9,-216.3 -2587.9,294.4 "/>
<linearGradient id="SVGID_35_" gradientUnits="userSpaceOnUse" x1="-4521.8999" y1="242.8" x2="-2587.8999" y2="242.8" gradientTransform="matrix(1 0 0 -1 0 1134)">
	<stop  offset="0" style="stop-color:#4F00AA"/>
	<stop  offset="1" style="stop-color:#2A2CFF"/>
</linearGradient>
<polygon class="st34" points="-2587.9,1372.8 -4521.9,754.2 -4521.9,409.6 -2587.9,920.3 "/>
<linearGradient id="SVGID_36_" gradientUnits="userSpaceOnUse" x1="-4521.8999" y1="196.25" x2="-2461.3999" y2="196.25" gradientTransform="matrix(1 0 0 -1 0 1134)">
	<stop  offset="0" style="stop-color:#0D3579"/>
	<stop  offset="1" style="stop-color:#0D1A9D"/>
</linearGradient>
<polygon class="st35" points="-2461.4,959.7 -4521.9,389.5 -4521.9,809 -2461.4,1486 "/>
<linearGradient id="SVGID_37_" gradientUnits="userSpaceOnUse" x1="-2124.1001" y1="650.9" x2="-190.1" y2="650.9" gradientTransform="matrix(1 0 0 -1 0 1134)">
	<stop  offset="0" style="stop-color:#FFADA9"/>
	<stop  offset="1" style="stop-color:#FEADCD"/>
</linearGradient>
<polygon class="st36" points="-190.1,964.7 -2124.1,346.1 -2124.1,1.5 -190.1,512.2 "/>
<linearGradient id="SVGID_38_" gradientUnits="userSpaceOnUse" x1="-2124.1001" y1="25" x2="-190.1" y2="25" gradientTransform="matrix(1 0 0 -1 0 1134)">
	<stop  offset="0" style="stop-color:#4F00AA"/>
	<stop  offset="1" style="stop-color:#2A2CFF"/>
</linearGradient>
<polygon class="st37" points="-190.1,1590.6 -2124.1,972 -2124.1,627.4 -190.1,1138.1 "/>
<linearGradient id="SVGID_39_" gradientUnits="userSpaceOnUse" x1="-2124.1001" y1="-21.55" x2="-63.6" y2="-21.55" gradientTransform="matrix(1 0 0 -1 0 1134)">
	<stop  offset="0" style="stop-color:#FFADA9"/>
	<stop  offset="1" style="stop-color:#FEADCD"/>
</linearGradient>
<polygon class="st38" points="-63.6,1177.5 -2124.1,607.3 -2124.1,1026.7 -63.6,1703.8 "/>
<linearGradient id="SVGID_40_" gradientUnits="userSpaceOnUse" x1="-84.2859" y1="650.9" x2="1934" y2="650.9" gradientTransform="matrix(1 0 0 -1 0 1134)">
	<stop  offset="0" style="stop-color:#426C99"/>
	<stop  offset="1" style="stop-color:#426CB6"/>
</linearGradient>
<polygon class="st39" points="1934,964.7 -84.3,346.1 -84.3,1.5 1934,512.2 "/>
<linearGradient id="SVGID_41_" gradientUnits="userSpaceOnUse" x1="0" y1="25" x2="1934" y2="25" gradientTransform="matrix(1 0 0 -1 0 1134)">
	<stop  offset="0" style="stop-color:#4F00AA"/>
	<stop  offset="1" style="stop-color:#2A2CFF"/>
</linearGradient>
<polygon class="st40" points="1934,1590.6 0,972 0,627.4 1934,1138.1 "/>
<linearGradient id="SVGID_42_" gradientUnits="userSpaceOnUse" x1="0" y1="-21.55" x2="2060.5" y2="-21.55" gradientTransform="matrix(1 0 0 -1 0 1134)">
	<stop  offset="0" style="stop-color:#426C99"/>
	<stop  offset="1" style="stop-color:#426CB6"/>
</linearGradient>
<polygon class="st41" points="2060.5,1177.5 0,607.3 0,1026.7 2060.5,1703.8 "/>
<linearGradient id="SVGID_43_" gradientUnits="userSpaceOnUse" x1="-9280.4004" y1="3102.75" x2="-7346.3999" y2="3102.75" gradientTransform="matrix(1 0 0 -1 0 1134)">
	<stop  offset="0" style="stop-color:#FFF3AA"/>
	<stop  offset="1" style="stop-color:#FFBF3F"/>
</linearGradient>
<polygon class="st42" points="-7346.4,-1487.1 -9280.4,-2105.7 -9280.4,-2450.4 -7346.4,-1939.7 "/>
<linearGradient id="SVGID_44_" gradientUnits="userSpaceOnUse" x1="-9280.4004" y1="2476.8999" x2="-7346.3999" y2="2476.8999" gradientTransform="matrix(1 0 0 -1 0 1134)">
	<stop  offset="0" style="stop-color:#4F00AA"/>
	<stop  offset="1" style="stop-color:#2A2CFF"/>
</linearGradient>
<polygon class="st43" points="-7346.4,-861.3 -9280.4,-1479.9 -9280.4,-1824.5 -7346.4,-1313.8 "/>
<linearGradient id="SVGID_45_" gradientUnits="userSpaceOnUse" x1="-9280.4004" y1="2430.3501" x2="-7219.8999" y2="2430.3501" gradientTransform="matrix(1 0 0 -1 0 1134)">
	<stop  offset="0" style="stop-color:#FFF3AA"/>
	<stop  offset="1" style="stop-color:#FFB82A"/>
</linearGradient>
<polygon class="st44" points="-7219.9,-1274.4 -9280.4,-1844.6 -9280.4,-1425.1 -7219.9,-748.1 "/>
<linearGradient id="SVGID_46_" gradientUnits="userSpaceOnUse" x1="-13766.5996" y1="5311.8999" x2="-11832.5996" y2="5311.8999" gradientTransform="matrix(1 0 0 -1 0 1134)">
	<stop  offset="0" style="stop-color:#FF0094"/>
	<stop  offset="1" style="stop-color:#E900CA"/>
</linearGradient>
<polygon class="st45" points="-11832.6,-3696.3 -13766.6,-4314.9 -13766.6,-4659.5 -11832.6,-4148.8 "/>
<linearGradient id="SVGID_47_" gradientUnits="userSpaceOnUse" x1="-13766.5996" y1="4686" x2="-11832.5996" y2="4686" gradientTransform="matrix(1 0 0 -1 0 1134)">
	<stop  offset="0" style="stop-color:#4F00AA"/>
	<stop  offset="1" style="stop-color:#2A2CFF"/>
</linearGradient>
<polygon class="st46" points="-11832.6,-3070.4 -13766.6,-3689 -13766.6,-4033.6 -11832.6,-3522.9 "/>
<linearGradient id="SVGID_48_" gradientUnits="userSpaceOnUse" x1="-13766.5996" y1="4639.4502" x2="-11706.0996" y2="4639.4502" gradientTransform="matrix(1 0 0 -1 0 1134)">
	<stop  offset="0" style="stop-color:#FF0094"/>
	<stop  offset="1" style="stop-color:#E900CA"/>
</linearGradient>
<polygon class="st47" points="-11706.1,-3483.6 -13766.6,-4053.7 -13766.6,-3634.3 -11706.1,-2957.2 "/>
<linearGradient id="SVGID_49_" gradientUnits="userSpaceOnUse" x1="-11569.7002" y1="5311.8999" x2="-9635.7002" y2="5311.8999" gradientTransform="matrix(1 0 0 -1 0 1134)">
	<stop  offset="0" style="stop-color:#FF1500"/>
	<stop  offset="1" style="stop-color:#9F0A00"/>
</linearGradient>
<polygon class="st48" points="-9635.7,-3696.3 -11569.7,-4314.9 -11569.7,-4659.5 -9635.7,-4148.8 "/>
<linearGradient id="SVGID_50_" gradientUnits="userSpaceOnUse" x1="-11569.7002" y1="4686" x2="-9635.7002" y2="4686" gradientTransform="matrix(1 0 0 -1 0 1134)">
	<stop  offset="0" style="stop-color:#4F00AA"/>
	<stop  offset="1" style="stop-color:#2A2CFF"/>
</linearGradient>
<polygon class="st49" points="-9635.7,-3070.4 -11569.7,-3689 -11569.7,-4033.6 -9635.7,-3522.9 "/>
<linearGradient id="SVGID_51_" gradientUnits="userSpaceOnUse" x1="-11569.7002" y1="4639.4502" x2="-9509.2002" y2="4639.4502" gradientTransform="matrix(1 0 0 -1 0 1134)">
	<stop  offset="0" style="stop-color:#FF1500"/>
	<stop  offset="1" style="stop-color:#9F0A00"/>
</linearGradient>
<polygon class="st50" points="-9509.2,-3483.6 -11569.7,-4053.7 -11569.7,-3634.3 -9509.2,-2957.2 "/>
</svg>
