<?xml version="1.0" encoding="utf-8"?>
<!-- Generator: Adobe Illustrator 21.0.2, SVG Export Plug-In . SVG Version: 6.00 Build 0)  -->
<svg version="1.1" id="Layer_1" xmlns="http://www.w3.org/2000/svg" xmlns:xlink="http://www.w3.org/1999/xlink" x="0px" y="0px"
	 viewBox="0 0 1934 1133" style="enable-background:new 0 0 1934 1133;" xml:space="preserve">
<style type="text/css">
	.st0{fill:url(#SVGID_1_);}
	.st1{fill:url(#SVGID_2_);}
	.st2{fill:url(#SVGID_3_);}
	.st3{fill:url(#SVGID_4_);}
	.st4{fill:url(#SVGID_5_);}
	.st5{fill:url(#SVGID_6_);}
	.st6{fill:url(#SVGID_7_);}
	.st7{fill:url(#SVGID_8_);}
	.st8{fill:url(#SVGID_9_);}
	.st9{fill:url(#SVGID_10_);}
	.st10{fill:url(#SVGID_11_);}
	.st11{fill:url(#SVGID_12_);}
	.st12{fill:url(#SVGID_13_);}
	.st13{fill:url(#SVGID_14_);}
	.st14{fill:url(#SVGID_15_);}
	.st15{fill:url(#SVGID_16_);}
	.st16{fill:url(#SVGID_17_);}
	.st17{fill:url(#SVGID_18_);}
	.st18{fill:url(#SVGID_19_);}
	.st19{fill:url(#SVGID_20_);}
	.st20{fill:url(#SVGID_21_);}
	.st21{fill:url(#SVGID_22_);}
	.st22{fill:url(#SVGID_23_);}
	.st23{fill:url(#SVGID_24_);}
	.st24{fill:url(#SVGID_25_);}
	.st25{fill:url(#SVGID_26_);}
	.st26{fill:url(#SVGID_27_);}
	.st27{fill:url(#SVGID_28_);}
	.st28{fill:url(#SVGID_29_);}
	.st29{fill:url(#SVGID_30_);}
	.st30{fill:url(#SVGID_31_);}
	.st31{fill:url(#SVGID_32_);}
	.st32{fill:url(#SVGID_33_);}
	.st33{fill:url(#SVGID_34_);}
	.st34{fill:url(#SVGID_35_);}
	.st35{fill:url(#SVGID_36_);}
	.st36{fill:url(#SVGID_37_);}
	.st37{fill:url(#SVGID_38_);}
	.st38{fill:url(#SVGID_39_);}
	.st39{fill:url(#SVGID_40_);}
	.st40{fill:url(#SVGID_41_);}
	.st41{fill:url(#SVGID_42_);}
	.st42{fill:url(#SVGID_43_);}
	.st43{fill:url(#SVGID_44_);}
	.st44{fill:url(#SVGID_45_);}
	.st45{fill:url(#SVGID_46_);}
	.st46{fill:url(#SVGID_47_);}
	.st47{fill:url(#SVGID_48_);}
	.st48{fill:url(#SVGID_49_);}
	.st49{fill:url(#SVGID_50_);}
	.st50{fill:url(#SVGID_51_);}
</style>
<title>Artboard 2</title>
<linearGradient id="SVGID_1_" gradientUnits="userSpaceOnUse" x1="4356.5146" y1="483.1187" x2="6290.5146" y2="483.1187">
	<stop  offset="0" style="stop-color:#00E2C1"/>
	<stop  offset="1" style="stop-color:#0AEF71"/>
</linearGradient>
<polygon class="st0" points="6290.5,964.7 4356.5,346.1 4356.5,1.5 6290.5,512.2 "/>
<linearGradient id="SVGID_2_" gradientUnits="userSpaceOnUse" x1="4356.5146" y1="1155.5581" x2="6417.0024" y2="1155.5581">
	<stop  offset="0" style="stop-color:#00E2C1"/>
	<stop  offset="1" style="stop-color:#0AEF71"/>
</linearGradient>
<polygon class="st1" points="6417,1177.5 4356.5,607.3 4356.5,1026.7 6417,1703.8 "/>
<linearGradient id="SVGID_3_" gradientUnits="userSpaceOnUse" x1="6784.6299" y1="613.2424" x2="8718.6299" y2="613.2424">
	<stop  offset="0" style="stop-color:#9CA28D"/>
	<stop  offset="1" style="stop-color:#AEB88D"/>
</linearGradient>
<polygon class="st2" points="8718.6,1094.9 6784.6,476.3 6784.6,131.6 8718.6,642.3 "/>
<linearGradient id="SVGID_4_" gradientUnits="userSpaceOnUse" x1="6784.6299" y1="1285.6818" x2="8845.1172" y2="1285.6818">
	<stop  offset="0" style="stop-color:#9CA28D"/>
	<stop  offset="1" style="stop-color:#AEB88D"/>
</linearGradient>
<polygon class="st3" points="8845.1,1307.6 6784.6,737.4 6784.6,1156.9 8845.1,1833.9 "/>
<linearGradient id="SVGID_5_" gradientUnits="userSpaceOnUse" x1="9244.6934" y1="613.2424" x2="11178.6934" y2="613.2424">
	<stop  offset="0" style="stop-color:#EA4900"/>
	<stop  offset="1" style="stop-color:#EA6F5B"/>
</linearGradient>
<polygon class="st4" points="11178.7,1094.9 9244.7,476.3 9244.7,131.6 11178.7,642.3 "/>
<linearGradient id="SVGID_6_" gradientUnits="userSpaceOnUse" x1="9244.6934" y1="1285.6818" x2="11305.1816" y2="1285.6818">
	<stop  offset="0" style="stop-color:#EA4900"/>
	<stop  offset="1" style="stop-color:#EA6F5B"/>
</linearGradient>
<polygon class="st5" points="11305.2,1307.6 9244.7,737.4 9244.7,1156.9 11305.2,1833.9 "/>
<linearGradient id="SVGID_7_" gradientUnits="userSpaceOnUse" x1="11832.5527" y1="613.2424" x2="13766.5527" y2="613.2424">
	<stop  offset="0" style="stop-color:#71777F"/>
	<stop  offset="1" style="stop-color:#6D6F8E"/>
</linearGradient>
<polygon class="st6" points="13766.6,1094.9 11832.6,476.3 11832.6,131.6 13766.6,642.3 "/>
<linearGradient id="SVGID_8_" gradientUnits="userSpaceOnUse" x1="11832.5527" y1="1285.6818" x2="13893.041" y2="1285.6818">
	<stop  offset="0" style="stop-color:#71777F"/>
	<stop  offset="1" style="stop-color:#6D6F8E"/>
</linearGradient>
<polygon class="st7" points="13893,1307.6 11832.6,737.4 11832.6,1156.9 13893,1833.9 "/>
<linearGradient id="SVGID_9_" gradientUnits="userSpaceOnUse" x1="-3.001333e-11" y1="2723.2478" x2="1934" y2="2723.2478">
	<stop  offset="0" style="stop-color:#F9FA57"/>
	<stop  offset="1" style="stop-color:#F9FA00"/>
</linearGradient>
<polygon class="st8" points="1934,3235.9 0,2577.5 0,2210.6 1934,2754.2 "/>
<linearGradient id="SVGID_10_" gradientUnits="userSpaceOnUse" x1="-3.001333e-11" y1="3364.6873" x2="2060.4873" y2="3364.6873">
	<stop  offset="0" style="stop-color:#F9FA57"/>
	<stop  offset="1" style="stop-color:#F9FA00"/>
</linearGradient>
<polygon class="st9" points="2060.5,3386.6 0,2816.4 0,3235.9 2060.5,3912.9 "/>
<linearGradient id="SVGID_11_" gradientUnits="userSpaceOnUse" x1="2196.8787" y1="2692.2478" x2="4130.8789" y2="2692.2478">
	<stop  offset="0" style="stop-color:#2C2A2D"/>
	<stop  offset="1" style="stop-color:#36392E"/>
</linearGradient>
<polygon class="st10" points="4130.9,3173.9 2196.9,2555.3 2196.9,2210.6 4130.9,2721.3 "/>
<linearGradient id="SVGID_12_" gradientUnits="userSpaceOnUse" x1="2196.8787" y1="3364.6873" x2="4257.3662" y2="3364.6873">
	<stop  offset="0" style="stop-color:#2C2A2D"/>
	<stop  offset="1" style="stop-color:#36392E"/>
</linearGradient>
<polygon class="st11" points="4257.4,3386.6 2196.9,2816.4 2196.9,3235.9 4257.4,3912.9 "/>
<linearGradient id="SVGID_13_" gradientUnits="userSpaceOnUse" x1="6881.104" y1="2692.2478" x2="8815.1035" y2="2692.2478">
	<stop  offset="0" style="stop-color:#4F00AA"/>
	<stop  offset="1" style="stop-color:#2A2CFF"/>
</linearGradient>
<polygon class="st12" points="8815.1,3173.9 6881.1,2555.3 6881.1,2210.6 8815.1,2721.3 "/>
<linearGradient id="SVGID_14_" gradientUnits="userSpaceOnUse" x1="6881.104" y1="3318.1289" x2="8815.1035" y2="3318.1289">
	<stop  offset="0" style="stop-color:#4F00AA"/>
	<stop  offset="1" style="stop-color:#2A2CFF"/>
</linearGradient>
<polygon class="st13" points="8815.1,3799.8 6881.1,3181.2 6881.1,2836.5 8815.1,3347.2 "/>
<linearGradient id="SVGID_15_" gradientUnits="userSpaceOnUse" x1="6881.104" y1="3364.6873" x2="8941.5918" y2="3364.6873">
	<stop  offset="0" style="stop-color:#4C00E9"/>
	<stop  offset="1" style="stop-color:#2100FF"/>
</linearGradient>
<polygon class="st14" points="8941.6,3386.6 6881.1,2816.4 6881.1,3235.9 8941.6,3912.9 "/>
<linearGradient id="SVGID_16_" gradientUnits="userSpaceOnUse" x1="9244.6934" y1="2692.2478" x2="11178.6934" y2="2692.2478">
	<stop  offset="0" style="stop-color:#FFFCE9"/>
	<stop  offset="1" style="stop-color:#FFEAC9"/>
</linearGradient>
<polygon class="st15" points="11178.7,3173.9 9244.7,2555.3 9244.7,2210.6 11178.7,2721.3 "/>
<linearGradient id="SVGID_17_" gradientUnits="userSpaceOnUse" x1="9244.6934" y1="3318.1289" x2="11178.6934" y2="3318.1289">
	<stop  offset="0" style="stop-color:#4F00AA"/>
	<stop  offset="1" style="stop-color:#2A2CFF"/>
</linearGradient>
<polygon class="st16" points="11178.7,3799.8 9244.7,3181.2 9244.7,2836.5 11178.7,3347.2 "/>
<linearGradient id="SVGID_18_" gradientUnits="userSpaceOnUse" x1="9244.6934" y1="3364.6873" x2="11305.1816" y2="3364.6873">
	<stop  offset="0" style="stop-color:#FFFCE9"/>
	<stop  offset="1" style="stop-color:#FFEAC9"/>
</linearGradient>
<polygon class="st17" points="11305.2,3386.6 9244.7,2816.4 9244.7,3235.9 11305.2,3912.9 "/>
<linearGradient id="SVGID_19_" gradientUnits="userSpaceOnUse" x1="11513.0645" y1="2692.2478" x2="13447.0645" y2="2692.2478">
	<stop  offset="0" style="stop-color:#154A25"/>
	<stop  offset="1" style="stop-color:#002C00"/>
</linearGradient>
<polygon class="st18" points="13447.1,3173.9 11513.1,2555.3 11513.1,2210.6 13447.1,2721.3 "/>
<linearGradient id="SVGID_20_" gradientUnits="userSpaceOnUse" x1="11513.0645" y1="3318.1289" x2="13447.0645" y2="3318.1289">
	<stop  offset="0" style="stop-color:#4F00AA"/>
	<stop  offset="1" style="stop-color:#2A2CFF"/>
</linearGradient>
<polygon class="st19" points="13447.1,3799.8 11513.1,3181.2 11513.1,2836.5 13447.1,3347.2 "/>
<linearGradient id="SVGID_21_" gradientUnits="userSpaceOnUse" x1="11513.0645" y1="3364.6873" x2="13573.5518" y2="3364.6873">
	<stop  offset="0" style="stop-color:#154A25"/>
	<stop  offset="1" style="stop-color:#002C00"/>
</linearGradient>
<polygon class="st20" points="13573.6,3386.6 11513.1,2816.4 11513.1,3235.9 13573.6,3912.9 "/>
<linearGradient id="SVGID_22_" gradientUnits="userSpaceOnUse" x1="-2.819434e-11" y1="4798.5459" x2="1934" y2="4798.5459">
	<stop  offset="0" style="stop-color:#E7D4FF"/>
	<stop  offset="1" style="stop-color:#E7B5FF"/>
</linearGradient>
<polygon class="st21" points="1934,5280.2 0,4661.6 0,4316.9 1934,4827.6 "/>
<linearGradient id="SVGID_23_" gradientUnits="userSpaceOnUse" x1="-2.819434e-11" y1="5424.4272" x2="1934" y2="5424.4272">
	<stop  offset="0" style="stop-color:#4F00AA"/>
	<stop  offset="1" style="stop-color:#2A2CFF"/>
</linearGradient>
<polygon class="st22" points="1934,5906.1 0,5287.5 0,4942.8 1934,5453.5 "/>
<linearGradient id="SVGID_24_" gradientUnits="userSpaceOnUse" x1="-2.819434e-11" y1="5470.9854" x2="2060.4873" y2="5470.9854">
	<stop  offset="0" style="stop-color:#E7D4FF"/>
	<stop  offset="1" style="stop-color:#E7B5FF"/>
</linearGradient>
<polygon class="st23" points="2060.5,5492.9 0,4922.7 0,5342.2 2060.5,6019.2 "/>
<linearGradient id="SVGID_25_" gradientUnits="userSpaceOnUse" x1="2196.8787" y1="4926.3413" x2="4130.8789" y2="4926.3413">
	<stop  offset="0" style="stop-color:#DB413F"/>
	<stop  offset="1" style="stop-color:#FF683F"/>
</linearGradient>
<polygon class="st24" points="4130.9,5408 2196.9,4789.4 2196.9,4444.7 4130.9,4955.4 "/>
<linearGradient id="SVGID_26_" gradientUnits="userSpaceOnUse" x1="2196.8787" y1="5552.2227" x2="4130.8789" y2="5552.2227">
	<stop  offset="0" style="stop-color:#4F00AA"/>
	<stop  offset="1" style="stop-color:#2A2CFF"/>
</linearGradient>
<polygon class="st25" points="4130.9,6033.9 2196.9,5415.3 2196.9,5070.6 4130.9,5581.3 "/>
<linearGradient id="SVGID_27_" gradientUnits="userSpaceOnUse" x1="2196.8787" y1="5598.7808" x2="4257.3662" y2="5598.7808">
	<stop  offset="0" style="stop-color:#DB413F"/>
	<stop  offset="1" style="stop-color:#FF683F"/>
</linearGradient>
<polygon class="st26" points="4257.4,5620.7 2196.9,5050.5 2196.9,5470 4257.4,6147 "/>
<linearGradient id="SVGID_28_" gradientUnits="userSpaceOnUse" x1="4486.1157" y1="4926.3413" x2="6420.1157" y2="4926.3413">
	<stop  offset="0" style="stop-color:#ADB7C1"/>
	<stop  offset="1" style="stop-color:#6A6D6B"/>
</linearGradient>
<polygon class="st27" points="6420.1,5408 4486.1,4789.4 4486.1,4444.7 6420.1,4955.4 "/>
<linearGradient id="SVGID_29_" gradientUnits="userSpaceOnUse" x1="4486.1157" y1="5552.2227" x2="6420.1157" y2="5552.2227">
	<stop  offset="0" style="stop-color:#4F00AA"/>
	<stop  offset="1" style="stop-color:#2A2CFF"/>
</linearGradient>
<polygon class="st28" points="6420.1,6033.9 4486.1,5415.3 4486.1,5070.6 6420.1,5581.3 "/>
<linearGradient id="SVGID_30_" gradientUnits="userSpaceOnUse" x1="4486.1157" y1="5598.7808" x2="6546.6035" y2="5598.7808">
	<stop  offset="0" style="stop-color:#ADB7C1"/>
	<stop  offset="1" style="stop-color:#6A6D6B"/>
</linearGradient>
<polygon class="st29" points="6546.6,5620.7 4486.1,5050.5 4486.1,5470 6546.6,6147 "/>
<linearGradient id="SVGID_31_" gradientUnits="userSpaceOnUse" x1="6881.104" y1="4926.3413" x2="8815.1035" y2="4926.3413">
	<stop  offset="0" style="stop-color:#7A1941"/>
	<stop  offset="1" style="stop-color:#651D1F"/>
</linearGradient>
<polygon class="st30" points="8815.1,5408 6881.1,4789.4 6881.1,4444.7 8815.1,4955.4 "/>
<linearGradient id="SVGID_32_" gradientUnits="userSpaceOnUse" x1="6881.104" y1="5552.2227" x2="8815.1035" y2="5552.2227">
	<stop  offset="0" style="stop-color:#4F00AA"/>
	<stop  offset="1" style="stop-color:#2A2CFF"/>
</linearGradient>
<polygon class="st31" points="8815.1,6033.9 6881.1,5415.3 6881.1,5070.6 8815.1,5581.3 "/>
<linearGradient id="SVGID_33_" gradientUnits="userSpaceOnUse" x1="6881.104" y1="5598.7808" x2="8941.5918" y2="5598.7808">
	<stop  offset="0" style="stop-color:#7A1941"/>
	<stop  offset="1" style="stop-color:#651D1F"/>
</linearGradient>
<polygon class="st32" points="8941.6,5620.7 6881.1,5050.5 6881.1,5470 8941.6,6147 "/>
<linearGradient id="SVGID_34_" gradientUnits="userSpaceOnUse" x1="9244.6934" y1="4926.3413" x2="11178.6934" y2="4926.3413">
	<stop  offset="0" style="stop-color:#0D3579"/>
	<stop  offset="1" style="stop-color:#0D1A9D"/>
</linearGradient>
<polygon class="st33" points="11178.7,5408 9244.7,4789.4 9244.7,4444.7 11178.7,4955.4 "/>
<linearGradient id="SVGID_35_" gradientUnits="userSpaceOnUse" x1="9244.6934" y1="5552.2227" x2="11178.6934" y2="5552.2227">
	<stop  offset="0" style="stop-color:#4F00AA"/>
	<stop  offset="1" style="stop-color:#2A2CFF"/>
</linearGradient>
<polygon class="st34" points="11178.7,6033.9 9244.7,5415.3 9244.7,5070.6 11178.7,5581.3 "/>
<linearGradient id="SVGID_36_" gradientUnits="userSpaceOnUse" x1="9244.6934" y1="5598.7808" x2="11305.1816" y2="5598.7808">
	<stop  offset="0" style="stop-color:#0D3579"/>
	<stop  offset="1" style="stop-color:#0D1A9D"/>
</linearGradient>
<polygon class="st35" points="11305.2,5620.7 9244.7,5050.5 9244.7,5470 11305.2,6147 "/>
<linearGradient id="SVGID_37_" gradientUnits="userSpaceOnUse" x1="11642.4775" y1="5144.1372" x2="13576.4775" y2="5144.1372">
	<stop  offset="0" style="stop-color:#FFADA9"/>
	<stop  offset="1" style="stop-color:#FEADCD"/>
</linearGradient>
<polygon class="st36" points="13576.5,5625.8 11642.5,5007.2 11642.5,4662.5 13576.5,5173.2 "/>
<linearGradient id="SVGID_38_" gradientUnits="userSpaceOnUse" x1="11642.4775" y1="5770.0186" x2="13576.4775" y2="5770.0186">
	<stop  offset="0" style="stop-color:#4F00AA"/>
	<stop  offset="1" style="stop-color:#2A2CFF"/>
</linearGradient>
<polygon class="st37" points="13576.5,6251.6 11642.5,5633 11642.5,5288.4 13576.5,5799.1 "/>
<linearGradient id="SVGID_39_" gradientUnits="userSpaceOnUse" x1="11642.4775" y1="5816.5767" x2="13702.9648" y2="5816.5767">
	<stop  offset="0" style="stop-color:#FFADA9"/>
	<stop  offset="1" style="stop-color:#FEADCD"/>
</linearGradient>
<polygon class="st38" points="13703,5838.5 11642.5,5268.3 11642.5,5687.8 13703,6364.8 "/>
<linearGradient id="SVGID_40_" gradientUnits="userSpaceOnUse" x1="13766.5527" y1="5144.1372" x2="15700.5527" y2="5144.1372">
	<stop  offset="0" style="stop-color:#426C99"/>
	<stop  offset="1" style="stop-color:#426CB6"/>
</linearGradient>
<polygon class="st39" points="15700.6,5625.8 13766.6,5007.2 13766.6,4662.5 15700.6,5173.2 "/>
<linearGradient id="SVGID_41_" gradientUnits="userSpaceOnUse" x1="13766.5527" y1="5770.0186" x2="15700.5527" y2="5770.0186">
	<stop  offset="0" style="stop-color:#4F00AA"/>
	<stop  offset="1" style="stop-color:#2A2CFF"/>
</linearGradient>
<polygon class="st40" points="15700.6,6251.6 13766.6,5633 13766.6,5288.4 15700.6,5799.1 "/>
<linearGradient id="SVGID_42_" gradientUnits="userSpaceOnUse" x1="13766.5527" y1="5816.5767" x2="15827.041" y2="5816.5767">
	<stop  offset="0" style="stop-color:#426C99"/>
	<stop  offset="1" style="stop-color:#426CB6"/>
</linearGradient>
<polygon class="st41" points="15827,5838.5 13766.6,5268.3 13766.6,5687.8 15827,6364.8 "/>
<linearGradient id="SVGID_43_" gradientUnits="userSpaceOnUse" x1="4486.1157" y1="2692.2478" x2="6420.1157" y2="2692.2478">
	<stop  offset="0" style="stop-color:#FFF3AA"/>
	<stop  offset="1" style="stop-color:#FFBF3F"/>
</linearGradient>
<polygon class="st42" points="6420.1,3173.9 4486.1,2555.3 4486.1,2210.6 6420.1,2721.3 "/>
<linearGradient id="SVGID_44_" gradientUnits="userSpaceOnUse" x1="4486.1157" y1="3318.1289" x2="6420.1157" y2="3318.1289">
	<stop  offset="0" style="stop-color:#4F00AA"/>
	<stop  offset="1" style="stop-color:#2A2CFF"/>
</linearGradient>
<polygon class="st43" points="6420.1,3799.8 4486.1,3181.2 4486.1,2836.5 6420.1,3347.2 "/>
<linearGradient id="SVGID_45_" gradientUnits="userSpaceOnUse" x1="4486.1157" y1="3364.6873" x2="6546.6035" y2="3364.6873">
	<stop  offset="0" style="stop-color:#FFF3AA"/>
	<stop  offset="1" style="stop-color:#FFB82A"/>
</linearGradient>
<polygon class="st44" points="6546.6,3386.6 4486.1,2816.4 4486.1,3235.9 6546.6,3912.9 "/>
<linearGradient id="SVGID_46_" gradientUnits="userSpaceOnUse" x1="-3.001333e-11" y1="483.1187" x2="1934" y2="483.1187">
	<stop  offset="0" style="stop-color:#FF0094"/>
	<stop  offset="1" style="stop-color:#E900CA"/>
</linearGradient>
<polygon class="st45" points="1934,964.7 0,346.1 0,1.5 1934,512.2 "/>
<linearGradient id="SVGID_47_" gradientUnits="userSpaceOnUse" x1="-3.001333e-11" y1="1109" x2="1934" y2="1109">
	<stop  offset="0" style="stop-color:#4F00AA"/>
	<stop  offset="1" style="stop-color:#2A2CFF"/>
</linearGradient>
<polygon class="st46" points="1934,1590.6 0,972 0,627.4 1934,1138.1 "/>
<linearGradient id="SVGID_48_" gradientUnits="userSpaceOnUse" x1="-3.001333e-11" y1="1155.5581" x2="2060.4873" y2="1155.5581">
	<stop  offset="0" style="stop-color:#FF0094"/>
	<stop  offset="1" style="stop-color:#E900CA"/>
</linearGradient>
<polygon class="st47" points="2060.5,1177.5 0,607.3 0,1026.7 2060.5,1703.8 "/>
<linearGradient id="SVGID_49_" gradientUnits="userSpaceOnUse" x1="2196.8787" y1="483.1187" x2="4130.8789" y2="483.1187">
	<stop  offset="0" style="stop-color:#FF1500"/>
	<stop  offset="1" style="stop-color:#9F0A00"/>
</linearGradient>
<polygon class="st48" points="4130.9,964.7 2196.9,346.1 2196.9,1.5 4130.9,512.2 "/>
<linearGradient id="SVGID_50_" gradientUnits="userSpaceOnUse" x1="2196.8787" y1="1109" x2="4130.8789" y2="1109">
	<stop  offset="0" style="stop-color:#4F00AA"/>
	<stop  offset="1" style="stop-color:#2A2CFF"/>
</linearGradient>
<polygon class="st49" points="4130.9,1590.6 2196.9,972 2196.9,627.4 4130.9,1138.1 "/>
<linearGradient id="SVGID_51_" gradientUnits="userSpaceOnUse" x1="2196.8787" y1="1155.5581" x2="4257.3662" y2="1155.5581">
	<stop  offset="0" style="stop-color:#FF1500"/>
	<stop  offset="1" style="stop-color:#9F0A00"/>
</linearGradient>
<polygon class="st50" points="4257.4,1177.5 2196.9,607.3 2196.9,1026.7 4257.4,1703.8 "/>
</svg>
